<?xml version="1.0" encoding="utf-8"?>
<!-- Generator: Adobe Illustrator 22.0.0, SVG Export Plug-In . SVG Version: 6.00 Build 0)  -->
<svg version="1.1" id="Layer_1" xmlns="http://www.w3.org/2000/svg" xmlns:xlink="http://www.w3.org/1999/xlink" x="0px" y="0px"
	 viewBox="0 0 14027 10208" style="enable-background:new 0 0 14027 10208;" xml:space="preserve">
<g>
	<path d="M8476.2,7557.2c0.5-1.6,1.1-5.6,2.9-9.1c3.7-7,7.9-13.9,12.2-20.6c10.4-15.9,19.9-32.2,28.5-49.2
		c12.7-24.9,26.4-49.3,40.1-73.7c6.3-11.3,12.9-22.5,17-34.9c4.8-14.7,16.4-24.6,26.5-35.4c2.9-3,7.1-3.2,11.2-2.1
		c0.9,0.3,1.8,0.8,2.7,1.3c14.2,7.8,36.1,27.2,44.5,38.9c5.4,7.5,4.9,14.9,0.5,22.4c-9.6,16.3-19.1,32.7-28.9,48.9
		c-6.8,11.2-12.2,22.9-16.5,35.2c-11.8,34.2-30.3,65.1-48,96.4c-3.4,6-8.4,11.2-12.9,16.4c-11.2,12.8-22.9,25-33.7,38.1
		c-9.4,11.4-31.6,7.3-36.3-8.3c-0.3-1-0.7-1.9-0.9-2.9C8482.3,7598.9,8479.4,7579.2,8476.2,7557.2z"/>
	<path d="M8154.8,7579.7c1.2-9.2,2.1-19.1,6.8-28.2c2.7-5.3,4.9-11,7.9-16.1c9.1-15.6,15.5-32.4,20.4-49.6
		c4.2-14.6,10.6-27.9,19.2-40.3c21-30.3,42.4-60.3,63.5-90.6c3.7-5.3,8.6-7.9,14.8-9.1c5.1-1,9.9-1.1,14.4,1.7
		c4.2,2.6,9.3,4.5,12.4,8.1c6.1,6.9,13.7,11.4,20.9,16.8c3.1,2.3,5.8,5.5,7.8,8.9c4.4,7.3,5.6,15.3,0.5,22.6
		c-25.6,35.7-44,75.8-68.6,112c-12.9,19-24.9,38.5-37.8,57.4c-7.3,10.7-15.6,20.7-23.5,30.9c-3.7,4.8-8,8.6-14.6,9.4
		c-2.8,0.3-5.8,1.6-8.2,3.2c-12.8,8.8-16.7,3.4-24.2-6.2C8159.3,7601.7,8155,7591.8,8154.8,7579.7z"/>
	<path d="M7917.7,7595.7c-11.5-9.2-18.1-18.6-19.6-31.3c-0.8-6.9-3-13.6-4.3-20.5c-1.8-10-1.2-19.8,3.1-29.3
		c3.7-8.2,6.6-16.7,10.5-24.8c9.8-20.7,20.3-41.1,30-61.9c8.9-19.1,20.8-36.2,32.5-53.5c8.9-13.2,16.7-27.2,25.1-40.7
		c1.6-2.5,3.4-4.9,5.2-7.2c3-3.8,9.5-5.3,13.5-2.8c18.9,11.3,36,24.8,49.1,42.7c2.1,2.8,2.3,7.6,1.9,11.4c-0.3,3.8-2,7.7-3.6,11.3
		c-24.5,56-54,108.9-94.1,155.5c-5.2,6-9.8,12.8-13.1,19.9c-5.4,11.4-13.8,19.2-24.6,24.9
		C7925.7,7591.2,7922.3,7593.2,7917.7,7595.7z"/>
	<path d="M7262.5,7535.7c-0.1-13.9,0.9-22.7,5.3-30.9c4.3-7.9,8.2-16,12.7-23.7c8.4-14.7,17.3-29.2,25.7-43.9
		c2.4-4.3,4.1-9,5.8-13.7c7.4-20.7,14.6-41.4,22.2-62c3.5-9.3,7.4-18.6,11.8-27.5c2.7-5.5,7.2-10.1,14.3-8.1
		c6.7,1.9,11.4-1.8,16.7-4.3c5.7-2.7,11.6-2.6,17.1,1c14.3,9.2,26.8,20.6,39,32.4c6.1,5.9,6.8,14.2,3.2,22.1
		c-5.9,12.8-14,24.2-22.7,35.1c-15.5,19.6-29.5,40.3-40.7,62.7c-5.8,11.6-11.2,23.4-16,35.4c-4.5,11.2-9.4,21.9-18.6,30.3
		c-7.4,6.7-13.3,14.8-17.6,24c-4.7,10.1-12.9,17.7-20.8,25.3c-5.5,5.3-16.8,4.1-21.5-2.1c-1.8-2.4-3.9-4.7-5-7.4
		C7267.2,7564.5,7263.8,7547.9,7262.5,7535.7z"/>
	<path d="M8898.1,7389.2c-0.3,16.3-4.9,31.1-13,45.4c-11.8,20.8-22.5,42.3-33.3,63.6c-9.5,18.8-21.5,36-33.5,53.1
		c-10.9,15.5-22.2,30.7-33.3,46c-1.8,2.4-3.5,4.9-5.5,7c-6.1,6.4-13.4,7.7-21.9,5.5c-7.8-2.1-12.2-7.3-13.3-14.6
		c-3.4-22.6-7-45.3-7.3-68.2c-0.1-9.1,1.4-17.6,6.6-25.6c5.4-8.3,9.6-17.4,14.1-26.3c6.7-13.3,11.8-27.5,24.2-37.2
		c2.9-2.3,4.3-6.6,6.2-10.1c4.9-8.7,9.8-17.3,14.7-26c8.3-14.7,16.5-29.4,23.2-45.1c8.3-19.2,14-29.9,35.7-6.7
		C8874,7363,8888.8,7373.5,8898.1,7389.2z"/>
	<path d="M6977.8,7519.7c7.7-17,15.1-33.2,22.6-49.5c1.2-2.7,2.4-5.5,4.1-7.9c17.6-24.5,25.7-53.9,40.3-79.9
		c3.8-6.8,6.1-14.8,7.9-22.5c2-8.6,5.2-14.5,15.3-15c4.7-0.2,9.7-2.6,13.7-5.2c6.9-4.5,13.4-4,19.5,0.4c13.7,9.8,27,20.1,39.3,31.6
		c5.1,4.7,5.1,10.7,2.7,16.5c-1.9,4.5-4.1,9.2-7.3,12.8c-14.8,16.7-23.9,36.6-32.8,56.7c-4.9,10.9-9.7,21.9-14.4,32.8
		c-4.8,11.1-10.3,21.4-20.8,28.5c-3.9,2.6-6.5,7.5-8.8,11.8c-4.7,8.8-8.4,18.1-13.3,26.7c-7.9,13.8-16.3,27.3-24.9,40.7
		c-3.8,5.9-19.5,8-24.8,3.8c-1.5-1.2-3.2-2.7-3.9-4.4c-2.8-7.4-6.4-14.8-7.6-22.6C6981.6,7556.4,6977.2,7537.9,6977.8,7519.7z"/>
	<path d="M7590.3,7521.1c1-3.7,1.3-9.2,3.9-13.1c12.2-17.3,18.8-37.3,28.3-55.9c13.7-26.6,29.9-51.8,43.9-78.2
		c2.8-5.3,6.6-10.1,8.9-15.6c5.8-14.2,16.5-24.8,26-36.3c2.6-3.1,6.8-4.5,10.9-3.2c5.7,1.8,11.9,3.2,16.5,6.7
		c11.8,9.1,22.9,19.1,33.9,29.1c3.9,3.6,4.2,9.2,2.7,14c-1.5,4.7-3.6,9.4-6.5,13.3c-23.8,32.2-41.3,68.1-61.3,102.5
		c-8,13.8-15.9,27.6-23.9,41.4c-6.5,11.2-12.5,22.7-19.5,33.6c-5.9,9.2-12.5,17.9-19.3,26.4c-3.1,3.9-8,5.7-13.2,6.3
		c-6.7,0.8-12.4-1.5-15.3-6.7c-1.9-3.5-4.5-6.9-5.4-10.6c-3.6-14.5-6.7-29.1-9.8-43.7C7590.4,7528.3,7590.6,7525.3,7590.3,7521.1z"
		/>
	<path d="M6754.3,7492.5c0.7-4.9,0.7-10,2.3-14.5c3.4-9.4,7.3-18.6,11.7-27.5c10.3-20.5,22.7-39.8,29.9-62
		c3.6-11.2,10.9-21.2,16-32.1c6.3-13.6,12-27.5,17.9-41.2c1.6-3.7,6-6.6,9.5-5c7,3.4,13.2,2.8,19.9-0.7c3.7-1.9,7.7-1.1,11.3,1.3
		c0.8,0.6,1.9,0.9,2.5,1.6c12.3,13,27.4,23,38.7,36.9c4.4,5.4,4.3,11,1.9,16.8c-1.9,4.6-4.5,8.9-7.1,13
		c-12.8,20.3-25.6,40.5-38.4,60.8c-6.9,10.9-12.6,22.6-24.1,30.1c-4,2.6-7.1,7.1-9.5,11.4c-5.9,10.4-11.5,21-16.8,31.8
		c-4.4,9-7.9,18.4-12.1,27.4c-2.1,4.5-4.8,8.8-7.6,12.9c-7.5,10.8-17.3,12-28.3,4.1c-4.4-3.1-6.8-7.3-7.7-12.3
		c-1.7-8.8-2.9-17.7-4.7-26.5c-0.8-3.9-3.1-7.5-3.6-11.4c-0.6-4.9-0.2-9.9-0.2-14.9C6755.4,7492.6,6754.9,7492.6,6754.3,7492.5z"/>
	<path d="M6514.8,7516.1c0.4-11.7,2.4-20.3,6-28.7c9.9-22.8,19.1-46,29.4-68.7c11.4-25.4,24-50.3,35.3-75.8
		c5.1-11.5,13.3-19.7,23.2-26.5c3.5-2.4,7.4-2.4,11.2-0.5c2.7,1.4,5.9,2.2,7.8,4.3c6.9,7.4,14.7,13.2,23.2,18.6c4,2.5,7,7,9.9,11
		c3.7,5,5.4,10.8,2.2,16.8c-13.7,25.5-23.9,52.6-37.4,78.2c-16.8,31.7-32.2,64.1-49.9,95.3c-7.4,13-15.9,25.2-25.5,36.6
		c-3,3.6-10.6,3.8-13.5,0.4c-2.6-3-5.3-6-7.5-9.3C6518.9,7551.2,6517.5,7532.1,6514.8,7516.1z"/>
	<path d="M6274.6,7543.6c1.8-7,3.4-16.9,7.1-26c6-14.7,12.5-29.4,20.3-43.2c17.6-31.3,33-63.7,45.7-97.3
		c5.4-14.3,13.6-26.5,24.7-36.8c4-3.7,8.8-4.8,13.8-2.7c5.5,2.3,11.6,4.3,15.7,8.4c7.2,7.1,15.5,12.3,23.6,18
		c6.5,4.5,9,13.9,6.3,21.5c-2.6,7.6-6.4,14.5-12.7,19.9c-15.5,13.2-25,30.5-34.6,48.1c-19.7,36-33.5,74.4-49.7,111.9
		c-4,9.3-8.3,17.7-17.1,23.8c-4.6,3.2-6.9,9.6-10.9,13.9c-1.6,1.8-5.7,3.1-7.7,2.3c-4.5-1.8-8.7-4.8-12.7-7.8
		c-4.1-3.1-6.9-7.2-7.5-12.5C6277.4,7572.2,6276.2,7559.3,6274.6,7543.6z"/>
	<path d="M5770.9,7286.5c-0.1,9-4.3,15.9-8.1,22.8c-10.6,19.2-21.5,38.3-32.2,57.5c-4.9,8.7-10.3,17.2-14.1,26.4
		c-6.6,15.9-18.2,28.5-26.5,43.3c-1.9,3.3-5.3,5.8-8.2,8.5c-13.3,12.2-25.4,25.3-31.3,43c-1.2,3.6-3.9,7.2-7,9.4
		c-3,2.1-8,4.4-10.8,3.3c-9.5-3.7-17.9-9.6-18.7-21.2c-1.1-15.9-2.9-31.9-2.1-47.7c0.7-12.9,6.2-25.4,14.9-35.3
		c5.4-6.1,10.4-12.2,13.1-19.8c9.2-26,26.1-46.9,43.7-67.3c13-15.1,26.6-29.7,40-44.5c8.6-9.6,22.4-9.2,30.9,1.1
		C5760.3,7272.8,5765.7,7279.9,5770.9,7286.5z"/>
	<path d="M5852.9,7488.5c-3.2-19-0.4-34.6,6.3-49.3c10.7-23.5,20.6-47.8,36.3-68.5c16.8-22.2,35.3-43.1,53.1-64.5
		c1.2-1.5,3-2.6,4.7-3.7c3.5-2.4,7.4-3.4,11.3-1.6c4.4,2,9.9,3.8,12.5,7.4c6.3,8.8,16.5,14.9,19.2,26.1c2.5,10.2,0.4,19.5-6,28.2
		c-12.4,16.8-24.8,33.7-36.3,51.2c-9.3,14.1-17.5,29-25.8,43.7c-9.8,17.3-19.1,35-29.1,52.2c-4,6.8-9.1,13-14.1,19.1
		c-1.8,2.2-4.8,3.5-7.4,4.8c-5.1,2.5-13.1,0.1-15.9-4.7c-4.5-7.7-8.9-15.4-8.2-25.1C5853.9,7497.7,5853,7491.7,5852.9,7488.5z"/>
	<path d="M6158.1,7333.2c1.6,0.4,5.8,0.6,9.1,2.5c7.8,4.3,15.7,8.8,22.7,14.4c8,6.4,12.5,15.5,14.5,25.5c0.7,3.7-0.5,7.9-1.5,11.7
		c-0.8,2.8-2.3,5.7-4.3,7.8c-16.8,17.5-27.8,38.9-39.6,59.7c-3.4,6-7,12.2-11.4,17.5c-14.2,16.9-25.6,35.6-35.2,55.4
		c-1.3,2.7-2.7,5.4-4.3,7.9c-3.3,4.9-5.8,11.7-12.3,12.1c-9.9,0.6-23.5-9.7-25-18.1c-2.1-11.8-3.9-23.6-5.5-35.4
		c-1.1-8.1,0.5-16,3.6-23.4c3.1-7.3,6.7-14.5,10.6-21.4c10.8-19.1,21.9-38,33-57c3-5.2,6.3-10.2,9.8-15
		c8.4-11.2,16.6-22.5,21.8-35.6C6145.8,7337.2,6151.7,7333.6,6158.1,7333.2z"/>
</g>
</svg>