<?xml version="1.0" encoding="UTF-8"?><svg id="_Шар_1" xmlns="http://www.w3.org/2000/svg" viewBox="0 0 103.14 115.57"><defs><style>.cls-1{fill:#1a1a1a;}</style></defs><path class="cls-1" d="M8.34,95.2v18.66s47.23,6.76,69.54-6.57c19.51-11.66,27.77-32.01,24.59-57.67C99.29,23.96,77.03.21,46.5,0,15.97-.21-1.25,21.19.07,43.89c1.27,21.84,14.2,36.68,36.68,33.71,22.47-2.97,28.2-14.2,27.56-27.14-.64-12.93-8.39-16.94-16.11-14.42-10.39,3.39-1.9,21.09-12.08,23.75-9.75,2.54-21.11-13.12-12.72-27.56,9.12-15.69,35.83-12.93,43.89-6.78,8.06,6.15,18.45,20.57,12.51,42.61-5.94,22.05-24.6,27.78-41.77,28.2-17.6.42-29.68-1.06-29.68-1.06Z"/></svg>